HIERARCHY
ROOT COM
{
  OFFSET -10.5682 89.9488 26.191
  CHANNELS 6 Xposition Yposition Zposition Zrotation Xrotation Yrotation
  JOINT Spine
  {
    OFFSET 0 10.0313 -3.64775
    CHANNELS 3 Zrotation Xrotation Yrotation
    JOINT Spine1
    {
      OFFSET 0 14.268 -0.0123585
      CHANNELS 3 Zrotation Xrotation Yrotation
      JOINT Spine2
      {
        OFFSET 0 15.5534 -0.0118018
        CHANNELS 3 Zrotation Xrotation Yrotation
        JOINT Neck
        {
          OFFSET 0 15.3437 -0.00507736
          CHANNELS 3 Zrotation Xrotation Yrotation
          JOINT Head
          {
            OFFSET 0 6.5943 0
            CHANNELS 3 Zrotation Xrotation Yrotation
            End Site
            {
              OFFSET 0 0 0
            }
          }
          JOINT Leftcollar
          {
            OFFSET 4.25429 -1.5481 1.99067
            CHANNELS 3 Zrotation Xrotation Yrotation
            JOINT LeftArm
            {
              OFFSET 16.8259 0 0
              CHANNELS 3 Zrotation Xrotation Yrotation
              JOINT LeftForeArm
              {
                OFFSET 0 -28.058 0
                CHANNELS 3 Zrotation Xrotation Yrotation
                JOINT LeftHand
                {
                  OFFSET 0 -24.7253 0
                  CHANNELS 3 Zrotation Xrotation Yrotation
                  End Site
                  {
                    OFFSET -2.98615 -9.94619 -0.575321
                  }
                }
              }
            }
          }
          JOINT RightCollar
          {
            OFFSET -4.25428 -1.54809 1.99069
            CHANNELS 3 Zrotation Xrotation Yrotation
            JOINT RightArm
            {
              OFFSET -16.8259 0 0
              CHANNELS 3 Zrotation Xrotation Yrotation
              JOINT RightForeArm
              {
                OFFSET 0 -28.058 0
                CHANNELS 3 Zrotation Xrotation Yrotation
                JOINT RightHand
                {
                  OFFSET 0 -24.7253 0
                  CHANNELS 3 Zrotation Xrotation Yrotation
                  End Site
                  {
                    OFFSET 2.98615 -9.94618 -0.575319
                  }
                }
              }
            }
          }
        }
      }
    }
  }
  JOINT LeftUpLeg
  {
    OFFSET 9.94275 0 0
    CHANNELS 3 Zrotation Xrotation Yrotation
    JOINT LeftLeg
    {
      OFFSET 0 -45.973 0
      CHANNELS 3 Zrotation Xrotation Yrotation
      JOINT LeftFoot
      {
        OFFSET 0 -43.1634 0
        CHANNELS 3 Zrotation Xrotation Yrotation
        JOINT LeftToe
        {
          OFFSET 0 0 15.6286
          CHANNELS 3 Zrotation Xrotation Yrotation
          End Site
          {
            OFFSET 0 0 0
          }
        }
      }
    }
  }
  JOINT RightUpLeg
  {
    OFFSET -9.94275 0 0
    CHANNELS 3 Zrotation Xrotation Yrotation
    JOINT RightLeg
    {
      OFFSET 0 -45.973 0
      CHANNELS 3 Zrotation Xrotation Yrotation
      JOINT RightFoot
      {
        OFFSET 0 -43.1634 0
        CHANNELS 3 Zrotation Xrotation Yrotation
        JOINT RightToe
        {
          OFFSET 0 0 15.6286
          CHANNELS 3 Zrotation Xrotation Yrotation
          End Site
          {
            OFFSET 0 0 0
          }
        }
      }
    }
  }
}
MOTION
Frames:	9
Frame Time:	0.0333333
-31.2423 88.9567 121.41 0.0592999 -5.68492 -136.931 -0.23648 -3.8148 -0 1.19325e-015 0 1.72551 7.95139e-016 3.97569e-016 6.36111e-015 -3.97569e-016 1.19271e-015 9.54166e-015 -7.95139e-016 7.95139e-016 1.27222e-014 -7.95139e-016 7.95139e-016 1.27222e-014 23.1147 31.8821 -46.3169 -1.68403e-015 -16.385 2.48639e-015 -4.65156e-014 2.84826e-030 90 -7.95139e-016 7.95139e-016 1.27222e-014 -28.2348 -19.4584 0.427839 -2.16749e-014 -55.758 -3.39145e-014 -2.54444e-014 -1.55802e-030 -90 -2.79676 -22.887 38.5571 6.36823e-017 -2.29317 1.59155e-015 -1.16368e-006 32.7879 -47.6607 2.38542e-015 -2.38542e-015 -0 -0.80513 9.98573 -26.6225 1.6134e-015 14.2321 -6.56253e-015 -2.51143e-008 -3.25491 25.4659 -1.59028e-015 0 3.18055e-015 
-35.002 88.7799 118.81 -0.501047 -8.50731 -137.073 -2.3547 -7.17686 -0 -5.96679e-016 -1.98785e-016 -0.093548 -4.41391e-032 -3.97569e-016 -6.36111e-015 -1.10348e-032 -1.98785e-016 -3.18055e-015 -3.31043e-032 -5.96354e-016 -3.18055e-015 -3.31043e-032 -5.96354e-016 -3.18055e-015 23.1368 32.7657 -47.3385 -4.54473e-016 -15.9406 1.24041e-015 5.56597e-015 -3.40817e-031 90 -3.31043e-032 -5.96354e-016 -3.18055e-015 -27.3034 -16.5105 1.52715 1.07907e-014 -54.3206 5.45317e-015 -2.22639e-014 -1.36327e-030 -90 -5.99856 -22.473 31.9358 1.68367e-015 -1.68199 3.18193e-015 1.20984e-006 36.0374 -41.9938 2.38542e-015 2.38542e-015 -0 -4.24544 10.4343 -27.5226 -1.59028e-015 16.0425 -0 2.57719e-008 -2.63139 26.1227 -3.18055e-015 -3.18055e-015 3.18055e-015 
-38.3605 88.9558 116.153 -2.27283 -9.44044 -139.151 -3.94319 -7.98772 -3.21172e-015 9.1102e-016 1.09332e-015 -0.858782 -3.97569e-016 -4.96962e-016 -6.36111e-015 -1.39149e-015 -9.93923e-016 -6.36111e-015 6.95746e-016 -3.97569e-016 -3.18055e-015 6.95746e-016 -3.97569e-016 -3.18055e-015 23.0631 32.3983 -47.953 -1.39232e-015 -16.3637 1.761e-015 -1.30204e-014 7.97269e-031 90 6.95746e-016 -3.97569e-016 -3.18055e-015 -25.8574 -14.3866 2.99346 1.23806e-014 -50.7319 2.00999e-014 3.18055e-014 1.94753e-030 -90 -7.27967 -20.0747 31.1767 3.18055e-015 -0.294636 -0 1.75718e-006 36.5287 -37.848 2.48481e-015 -2.18663e-015 -0 -7.78414 11.1952 -25.5434 -1.22432e-015 20.0551 -3.38586e-015 -8.27659e-009 -0.254464 25.6767 1.76556e-031 3.18055e-015 -3.18055e-015 
-41.5545 89.4591 113.735 -3.5992 -11.1768 -140.596 -5.87396 -9.73906 -3.22706e-015 -5.64657e-016 -4.84538e-016 -2.08467 -6.08778e-016 -5.46658e-016 -0 -8.44835e-016 -6.64686e-016 -0 -1.37286e-015 -1.05604e-015 -3.18055e-015 -1.37286e-015 -1.05604e-015 -3.18055e-015 23.197 30.1936 -49.8888 4.82988e-015 -16.5028 -5.39046e-015 -1.37161e-014 8.39871e-031 90 -1.37286e-015 -1.05604e-015 -3.18055e-015 -24.166 -11.9734 3.97962 7.96783e-015 -45.1477 4.50962e-015 -6.36111e-015 -3.89506e-031 -90 -9.13475 -18.7548 30.122 1.38413e-015 1.8562 6.36445e-015 2.43059e-006 33.034 -36.1243 -1.98785e-015 2.78299e-015 -6.36111e-015 -11.8015 9.27392 -23.407 7.22875e-015 26.9123 -1.07005e-014 -8.81941e-008 3.37761 24.2837 9.54166e-015 6.36111e-015 -9.54166e-015 
-43.8314 90.3383 111.192 -7.10686 -6.78292 -145.146 -5.25289 -3.94038 -6.37618e-015 -8.84065e-016 6.4605e-016 -0.938771 5.46658e-016 -9.93923e-017 -0 3.97569e-016 -6.95746e-016 -0 3.97569e-016 -5.96354e-016 -0 3.97569e-016 -5.96354e-016 -0 24.0263 26.5271 -51.3527 -5.41365e-016 -18.7997 -1.6799e-015 1.66979e-014 -1.02245e-030 90 3.97569e-016 -5.96354e-016 -0 -22.2356 -10.6048 4.85706 3.18055e-015 -40.1913 -0 -9.54166e-015 -5.84258e-031 -90 -7.78824 -11.5164 35.7545 4.22182e-016 3.35545 6.37203e-015 -9.18905e-007 29.8838 -37.0813 -2.78299e-015 -4.77083e-015 3.18055e-015 -13.5157 9.82504 -15.7555 3.97569e-016 36.5967 -0 -1.51872e-007 10.4895 18.4201 3.18055e-015 -3.18055e-015 4.77083e-015 
-45.9946 90.9517 109.008 -7.21508 -6.30708 -148.076 -4.77415 -3.50645 -0 -4.10044e-016 -4.96962e-016 -1.42381 4.47266e-016 4.96962e-016 3.18055e-015 -4.96962e-017 -2.98177e-016 -3.18055e-015 1.98785e-016 9.93923e-017 -0 1.98785e-016 9.93923e-017 -0 24.4194 22.2596 -44.8801 2.20493e-015 -21.9678 -6.85912e-015 1.27222e-014 -7.79011e-031 90 1.98785e-016 9.93923e-017 -0 -20.4256 -8.37981 5.63713 2.20619e-015 -34.7471 3.87081e-015 6.36111e-015 3.89506e-031 -90 -7.42439 -8.91735 41.1343 -3.52524e-016 3.17201 6.37087e-015 -9.2137e-007 28.5482 -40.0835 3.18055e-015 1.59028e-015 3.18055e-015 -14.2675 4.41743 -12.3276 7.47524e-016 47.1703 -4.67851e-015 1.24971e-007 16.9519 11.8001 -1.76556e-031 -1.27222e-014 -7.95139e-016 
-47.9495 91.2978 106.979 -7.60868 -5.71834 -150.231 -4.55791 -2.54778 -0 2.9865e-016 0 -3.22418 0 3.97569e-016 -0 -4.96962e-016 1.98785e-016 -0 -4.96962e-016 5.96354e-016 -0 -4.96962e-016 5.96354e-016 -0 26.2263 17.8011 -44.082 8.63655e-016 -24.5564 -1.74842e-015 1.45113e-014 -8.8856e-031 90 -4.96962e-016 5.96354e-016 -0 -18.9362 -6.44136 6.73321 -2.67602e-015 -29.1132 -2.1843e-014 6.36111e-015 3.89506e-031 -90 -7.72725 -6.19636 44.0962 -4.95708e-016 2.69504 -6.36815e-015 -7.99503e-007 26.9054 -41.2523 5.56597e-015 -3.18055e-015 -0 -14.8074 -0.571332 -11.65 -1.89693e-014 56.2983 4.01246e-014 5.00195e-010 21.2793 3.81218 6.36111e-015 -1.59028e-015 -1.59028e-015 
-49.806 91.5384 104.941 -7.4599 -4.82309 -152.031 -3.84581 -1.96942 -0 3.95623e-015 -3.97569e-016 -4.86036 2.98177e-016 0 -3.18055e-015 2.98177e-016 3.97569e-016 -0 6.95746e-016 0 -6.36111e-015 6.95746e-016 0 -6.36111e-015 28.0535 12.0383 -43.4789 -1.25898e-014 -24.6255 -3.49876e-015 -4.83202e-014 2.95876e-030 90 6.95746e-016 0 -6.36111e-015 -17.8695 -4.10053 7.7741 -3.2689e-015 -23.0704 -1.03711e-014 -4.77083e-015 -2.92129e-031 -90 -7.73217 -3.47736 45.2632 -6.26031e-016 2.05692 6.36521e-015 -4.72134e-007 24.5944 -40.684 -7.55382e-015 3.18055e-015 1.59028e-014 -14.4634 -5.04858 -12.0395 1.42218e-014 62.8363 -2.09002e-014 4.63473e-008 16.9991 -2.17735 1.59028e-015 3.18055e-015 -1.59028e-015 
-51.3691 91.6144 102.91 -7.60269 -2.92088 -153.397 -2.83331 0.4494 -6.36131e-015 1.46622e-015 1.19271e-015 -7.74546 -1.09332e-015 0 -0 -9.93923e-016 0 -0 -9.93923e-016 -3.97569e-016 -0 -9.93923e-016 -3.97569e-016 -0 30.3968 6.9191 -40.298 4.77083e-015 -25.0906 -0 -1.98785e-015 1.21721e-031 90 -9.93923e-016 -3.97569e-016 -0 -17.053 -1.71588 8.40963 3.66894e-015 -19.1085 -3.36602e-015 2.38542e-014 1.46065e-030 -90 -7.42162 0.081559 46.8264 -1.89618e-016 1.62493 3.18183e-015 2.22061e-007 22.7637 -40.7833 1.19271e-015 1.59028e-015 -3.18055e-015 -13.2132 -7.95484 -11.9307 -3.2142e-015 66.104 1.17776e-014 -2.63139e-008 12.7841 -3.88794 1.59028e-015 3.18055e-015 1.59028e-015 
